{
  "accessors": [
    {
      "bufferView": 2,
      "componentType": 5126,
      "count": 572,
      "max": [
        2.781968355178833,
        1.8285939693450928,
        0.0
      ],
      "min": [
        -3.0879998207092285,
        -2.3562405109405518,
        -0.029999999329447746
      ],
      "type": "VEC3"
    },
    {
      "bufferView": 2,
      "byteOffset": 6864,
      "componentType": 5126,
      "count": 572,
      "max": [
        0.9740073680877686,
        0.9998425245285034,
        1.0
      ],
      "min": [
        -0.9998641014099121,
        -0.9993476271629333,
        -1.0
      ],
      "type": "VEC3"
    },
    {
      "bufferView": 3,
      "componentType": 5126,
      "count": 572,
      "max": [
        0.9945231080055237,
        9.353311725135427e-06,
        2.0306529791014327e-08,
        1.0
      ],
      "min": [
        -1.0,
        -0.10456355661153793,
        -1.0,
        1.0
      ],
      "type": "VEC4"
    },
    {
      "bufferView": 1,
      "componentType": 5126,
      "count": 572,
      "max": [
        0.7483476400375366,
        0.994835376739502
      ],
      "min": [
        0.006190734449774027,
        0.0017972420901060104
      ],
      "type": "VEC2"
    },
    {
      "bufferView": 1,
      "byteOffset": 4576,
      "componentType": 5126,
      "count": 572,
      "max": [
        0.7483476400375366,
        0.994835376739502
      ],
      "min": [
        0.006190734449774027,
        0.0017972420901060104
      ],
      "type": "VEC2"
    },
    {
      "bufferView": 1,
      "byteOffset": 9152,
      "componentType": 5126,
      "count": 572,
      "max": [
        0.7483476400375366,
        0.994835376739502
      ],
      "min": [
        0.006190734449774027,
        0.0017972420901060104
      ],
      "type": "VEC2"
    },
    {
      "bufferView": 0,
      "componentType": 5125,
      "count": 2460,
      "type": "SCALAR"
    }
  ],
  "asset": {
    "extras": {
      "author": "plaggy (https://sketchfab.com/plaggy)",
      "license": "CC-BY-4.0 (http://creativecommons.org/licenses/by/4.0/)",
      "source": "https://sketchfab.com/3d-models/cc0-slice-of-ham-41102d3677d64d08b88901dd9fa01584",
      "title": "CC0 - Slice of Ham"
    },
    "generator": "Sketchfab-16.7.0",
    "version": "2.0"
  },
  "bufferViews": [
    {
      "buffer": 0,
      "byteLength": 9840,
      "name": "floatBufferViews",
      "target": 34963
    },
    {
      "buffer": 0,
      "byteLength": 13728,
      "byteOffset": 9840,
      "byteStride": 8,
      "name": "floatBufferViews",
      "target": 34962
    },
    {
      "buffer": 0,
      "byteLength": 13728,
      "byteOffset": 23568,
      "byteStride": 12,
      "name": "floatBufferViews",
      "target": 34962
    },
    {
      "buffer": 0,
      "byteLength": 9152,
      "byteOffset": 37296,
      "byteStride": 16,
      "name": "floatBufferViews",
      "target": 34962
    }
  ],
  "buffers": [
    {
      "byteLength": 46448,
      "uri": "scene.bin"
    }
  ],
  "images": [
    {
      "uri": "textures/SliceOfHam_baseColor.png"
    },
    {
      "uri": "textures/SliceOfHam_metallicRoughness.png"
    },
    {
      "uri": "textures/SliceOfHam_normal.png"
    }
  ],
  "materials": [
    {
      "name": "SliceOfHam",
      "normalTexture": {
        "index": 2
      },
      "pbrMetallicRoughness": {
        "baseColorTexture": {
          "index": 0
        },
        "metallicRoughnessTexture": {
          "index": 1
        }
      }
    }
  ],
  "meshes": [
    {
      "name": "SliceofHam_SliceOfHam_0",
      "primitives": [
        {
          "attributes": {
            "NORMAL": 1,
            "POSITION": 0,
            "TANGENT": 2,
            "TEXCOORD_0": 3,
            "TEXCOORD_1": 4,
            "TEXCOORD_2": 5
          },
          "indices": 6,
          "material": 0,
          "mode": 4
        }
      ]
    }
  ],
  "nodes": [
    {
      "children": [
        1
      ],
      "matrix": [
        1.0,
        0.0,
        0.0,
        0.0,
        0.0,
        2.220446049250313e-16,
        -1.0,
        0.0,
        0.0,
        1.0,
        2.220446049250313e-16,
        0.0,
        0.0,
        0.0,
        0.0,
        1.0
      ],
      "name": "Sketchfab_model"
    },
    {
      "children": [
        2
      ],
      "matrix": [
        0.02539999969303608,
        0.0,
        0.0,
        0.0,
        0.0,
        0.0,
        0.02539999969303608,
        0.0,
        0.0,
        -0.02539999969303608,
        0.0,
        0.0,
        0.0,
        0.0,
        0.0,
        1.0
      ],
      "name": "dc7ee0c0405f49bc886d0ffa10868635.fbx"
    },
    {
      "children": [
        3
      ],
      "name": "RootNode"
    },
    {
      "children": [
        4
      ],
      "matrix": [
        0.9495400455296006,
        -0.19457457281172008,
        0.24599682426970607,
        0.0,
        0.2876461174997056,
        0.8528938625989302,
        -0.4356968788371368,
        0.0,
        -0.12503364756332422,
        0.4844716655865581,
        0.8658254975575602,
        0.0,
        0.20230525732040405,
        0.0,
        -0.28507179021835327,
        1.0
      ],
      "name": "SliceofHam"
    },
    {
      "mesh": 0,
      "name": "SliceofHam_SliceOfHam_0"
    }
  ],
  "samplers": [
    {
      "magFilter": 9729,
      "minFilter": 9987,
      "wrapS": 10497,
      "wrapT": 10497
    }
  ],
  "scene": 0,
  "scenes": [
    {
      "name": "Sketchfab_Scene",
      "nodes": [
        0
      ]
    }
  ],
  "textures": [
    {
      "sampler": 0,
      "source": 0
    },
    {
      "sampler": 0,
      "source": 1
    },
    {
      "sampler": 0,
      "source": 2
    }
  ]
}
