<svg width="415" height="129" viewBox="0 0 415 129" fill="none" xmlns="http://www.w3.org/2000/svg">
<g filter="url(#filter0_d_518_1307)">
<rect x="20" y="24" width="375" height="73" rx="18" fill="white" shape-rendering="crispEdges"/>
<rect x="57.5" y="36" width="100" height="49" rx="8" fill="white"/>
<g clip-path="url(#clip0_518_1307)">
<path d="M114.5 50V59C114.5 60.1046 113.605 61 112.5 61H102.5C101.395 61 100.5 60.1046 100.5 59V50M116.5 52L107.5 43L98.5 52" stroke="#999999" stroke-width="1.5" stroke-linecap="round" stroke-linejoin="round"/>
</g>
<path d="M98.8 70.05V77H97.66V73.96H94.39V77H93.25V70.05H94.39V73.03H97.66V70.05H98.8ZM102.691 77.09C102.171 77.09 101.701 76.9733 101.281 76.74C100.861 76.5 100.531 76.1667 100.291 75.74C100.051 75.3067 99.9308 74.8067 99.9308 74.24C99.9308 73.68 100.054 73.1833 100.301 72.75C100.547 72.3167 100.884 71.9833 101.311 71.75C101.737 71.5167 102.214 71.4 102.741 71.4C103.267 71.4 103.744 71.5167 104.171 71.75C104.597 71.9833 104.934 72.3167 105.181 72.75C105.427 73.1833 105.551 73.68 105.551 74.24C105.551 74.8 105.424 75.2967 105.171 75.73C104.917 76.1633 104.571 76.5 104.131 76.74C103.697 76.9733 103.217 77.09 102.691 77.09ZM102.691 76.1C102.984 76.1 103.257 76.03 103.511 75.89C103.771 75.75 103.981 75.54 104.141 75.26C104.301 74.98 104.381 74.64 104.381 74.24C104.381 73.84 104.304 73.5033 104.151 73.23C103.997 72.95 103.794 72.74 103.541 72.6C103.287 72.46 103.014 72.39 102.721 72.39C102.427 72.39 102.154 72.46 101.901 72.6C101.654 72.74 101.457 72.95 101.311 73.23C101.164 73.5033 101.091 73.84 101.091 74.24C101.091 74.8333 101.241 75.2933 101.541 75.62C101.847 75.94 102.231 76.1 102.691 76.1ZM113.348 71.4C113.781 71.4 114.168 71.49 114.508 71.67C114.854 71.85 115.124 72.1167 115.318 72.47C115.518 72.8233 115.618 73.25 115.618 73.75V77H114.488V73.92C114.488 73.4267 114.364 73.05 114.118 72.79C113.871 72.5233 113.534 72.39 113.108 72.39C112.681 72.39 112.341 72.5233 112.088 72.79C111.841 73.05 111.718 73.4267 111.718 73.92V77H110.588V73.92C110.588 73.4267 110.464 73.05 110.218 72.79C109.971 72.5233 109.634 72.39 109.208 72.39C108.781 72.39 108.441 72.5233 108.188 72.79C107.941 73.05 107.818 73.4267 107.818 73.92V77H106.678V71.49H107.818V72.12C108.004 71.8933 108.241 71.7167 108.528 71.59C108.814 71.4633 109.121 71.4 109.448 71.4C109.888 71.4 110.281 71.4933 110.628 71.68C110.974 71.8667 111.241 72.1367 111.428 72.49C111.594 72.1567 111.854 71.8933 112.208 71.7C112.561 71.5 112.941 71.4 113.348 71.4ZM122.118 74.11C122.118 74.3167 122.105 74.5033 122.078 74.67H117.868C117.902 75.11 118.065 75.4633 118.358 75.73C118.652 75.9967 119.012 76.13 119.438 76.13C120.052 76.13 120.485 75.8733 120.738 75.36H121.968C121.802 75.8667 121.498 76.2833 121.058 76.61C120.625 76.93 120.085 77.09 119.438 77.09C118.912 77.09 118.438 76.9733 118.018 76.74C117.605 76.5 117.278 76.1667 117.038 75.74C116.805 75.3067 116.688 74.8067 116.688 74.24C116.688 73.6733 116.802 73.1767 117.028 72.75C117.262 72.3167 117.585 71.9833 117.998 71.75C118.418 71.5167 118.898 71.4 119.438 71.4C119.958 71.4 120.422 71.5133 120.828 71.74C121.235 71.9667 121.552 72.2867 121.778 72.7C122.005 73.1067 122.118 73.5767 122.118 74.11ZM120.928 73.75C120.922 73.33 120.772 72.9933 120.478 72.74C120.185 72.4867 119.822 72.36 119.388 72.36C118.995 72.36 118.658 72.4867 118.378 72.74C118.098 72.9867 117.932 73.3233 117.878 73.75H120.928Z" fill="#999999"/>
<rect x="165.5" y="36" width="92" height="49" rx="8" fill="#F0F1FF"/>
<g clip-path="url(#clip1_518_1307)">
<path d="M202.5 42.25C202.086 42.25 201.75 42.5858 201.75 43C201.75 43.4142 202.086 43.75 202.5 43.75V42.25ZM204.5 43L205.248 42.9425C205.218 42.5517 204.892 42.25 204.5 42.25V43ZM220.5 46L221.245 46.0828C221.269 45.8708 221.201 45.6588 221.059 45.4998C220.917 45.3408 220.713 45.25 220.5 45.25V46ZM204.731 46L203.983 46.0575L203.983 46.0575L204.731 46ZM217.839 55.1187L217.892 55.8668L217.839 55.1187ZM207.484 55.8583L207.431 55.1102L207.484 55.8583ZM202.5 43.75H204.5V42.25H202.5V43.75ZM207.537 56.6064L217.892 55.8668L217.785 54.3706L207.431 55.1102L207.537 56.6064ZM220.429 53.4274L221.245 46.0828L219.755 45.9172L218.939 53.2618L220.429 53.4274ZM203.752 43.0575L203.983 46.0575L205.479 45.9425L205.248 42.9425L203.752 43.0575ZM203.983 46.0575L204.6 54.0743L206.095 53.9592L205.479 45.9425L203.983 46.0575ZM220.5 45.25H204.731V46.75H220.5V45.25ZM217.892 55.8668C219.216 55.7722 220.283 54.7462 220.429 53.4274L218.939 53.2618C218.872 53.8612 218.387 54.3276 217.785 54.3706L217.892 55.8668ZM207.431 55.1102C206.745 55.1592 206.148 54.6449 206.095 53.9592L204.6 54.0743C204.716 55.5827 206.028 56.7142 207.537 56.6064L207.431 55.1102Z" fill="#5D63D1"/>
<rect x="208" y="60.5" width="0.01" height="0.01" stroke="#5D63D1" stroke-width="2" stroke-linejoin="round"/>
<rect x="217" y="60.5" width="0.01" height="0.01" stroke="#5D63D1" stroke-width="2" stroke-linejoin="round"/>
</g>
<path d="M202.07 70.05V77H200.93V72.24L198.81 77H198.02L195.89 72.24V77H194.75V70.05H195.98L198.42 75.5L200.85 70.05H202.07ZM203.188 74.22C203.188 73.6667 203.302 73.1767 203.528 72.75C203.762 72.3233 204.075 71.9933 204.468 71.76C204.868 71.52 205.308 71.4 205.788 71.4C206.222 71.4 206.598 71.4867 206.918 71.66C207.245 71.8267 207.505 72.0367 207.698 72.29V71.49H208.848V77H207.698V76.18C207.505 76.44 207.242 76.6567 206.908 76.83C206.575 77.0033 206.195 77.09 205.768 77.09C205.295 77.09 204.862 76.97 204.468 76.73C204.075 76.4833 203.762 76.1433 203.528 75.71C203.302 75.27 203.188 74.7733 203.188 74.22ZM207.698 74.24C207.698 73.86 207.618 73.53 207.458 73.25C207.305 72.97 207.102 72.7567 206.848 72.61C206.595 72.4633 206.322 72.39 206.028 72.39C205.735 72.39 205.462 72.4633 205.208 72.61C204.955 72.75 204.748 72.96 204.588 73.24C204.435 73.5133 204.358 73.84 204.358 74.22C204.358 74.6 204.435 74.9333 204.588 75.22C204.748 75.5067 204.955 75.7267 205.208 75.88C205.468 76.0267 205.742 76.1 206.028 76.1C206.322 76.1 206.595 76.0267 206.848 75.88C207.102 75.7333 207.305 75.52 207.458 75.24C207.618 74.9533 207.698 74.62 207.698 74.24ZM211.486 72.29C211.652 72.01 211.872 71.7933 212.146 71.64C212.426 71.48 212.756 71.4 213.136 71.4V72.58H212.846C212.399 72.58 212.059 72.6933 211.826 72.92C211.599 73.1467 211.486 73.54 211.486 74.1V77H210.346V71.49H211.486V72.29ZM216.364 74.25L218.904 77H217.364L215.324 74.63V77H214.184V69.6H215.324V73.9L217.324 71.49H218.904L216.364 74.25ZM224.771 74.11C224.771 74.3167 224.757 74.5033 224.731 74.67H220.521C220.554 75.11 220.717 75.4633 221.011 75.73C221.304 75.9967 221.664 76.13 222.091 76.13C222.704 76.13 223.137 75.8733 223.391 75.36H224.621C224.454 75.8667 224.151 76.2833 223.711 76.61C223.277 76.93 222.737 77.09 222.091 77.09C221.564 77.09 221.091 76.9733 220.671 76.74C220.257 76.5 219.931 76.1667 219.691 75.74C219.457 75.3067 219.341 74.8067 219.341 74.24C219.341 73.6733 219.454 73.1767 219.681 72.75C219.914 72.3167 220.237 71.9833 220.651 71.75C221.071 71.5167 221.551 71.4 222.091 71.4C222.611 71.4 223.074 71.5133 223.481 71.74C223.887 71.9667 224.204 72.2867 224.431 72.7C224.657 73.1067 224.771 73.5767 224.771 74.11ZM223.581 73.75C223.574 73.33 223.424 72.9933 223.131 72.74C222.837 72.4867 222.474 72.36 222.041 72.36C221.647 72.36 221.311 72.4867 221.031 72.74C220.751 72.9867 220.584 73.3233 220.531 73.75H223.581ZM227.223 72.42V75.47C227.223 75.6767 227.269 75.8267 227.363 75.92C227.463 76.0067 227.629 76.05 227.863 76.05H228.563V77H227.663C227.149 77 226.756 76.88 226.483 76.64C226.209 76.4 226.073 76.01 226.073 75.47V72.42H225.423V71.49H226.073V70.12H227.223V71.49H228.563V72.42H227.223Z" fill="#5D63D1"/>
<rect x="265.5" y="36" width="92" height="49" rx="8" fill="white"/>
<g clip-path="url(#clip2_518_1307)">
<circle cx="311.5" cy="52" r="2" stroke="#999999" stroke-width="1.5"/>
<path d="M304.899 45.8791C303.969 46.8812 303.294 48.0704 302.901 49.3445L304.5 50.2678C305.833 51.0376 305.833 52.9621 304.5 53.7319L302.899 54.6563C303.094 55.2863 303.362 55.9046 303.706 56.4999C304.049 57.0952 304.451 57.6363 304.899 58.1204L306.5 57.196C307.833 56.4262 309.5 57.3885 309.5 58.9281L309.5 60.7749C310.8 61.0715 312.167 61.0814 313.5 60.7773L313.5 58.9282C313.5 57.3886 315.167 56.4263 316.5 57.1961L318.101 58.1207C319.031 57.1186 319.706 55.9294 320.099 54.6553L318.5 53.7319C317.167 52.9621 317.167 51.0376 318.5 50.2678L320.101 49.3434C319.906 48.7134 319.638 48.0952 319.294 47.4999C318.951 46.9046 318.549 46.3634 318.101 45.8793L316.5 46.8037C315.167 47.5735 313.5 46.6112 313.5 45.0716L313.5 43.2249C312.2 42.9283 310.833 42.9183 309.5 43.2225L309.5 45.0716C309.5 46.6112 307.833 47.5735 306.5 46.8037L304.899 45.8791Z" stroke="#999999" stroke-width="1.5" stroke-linejoin="round"/>
</g>
<path d="M294.04 77.07C293.573 77.07 293.153 76.99 292.78 76.83C292.407 76.6633 292.113 76.43 291.9 76.13C291.687 75.83 291.58 75.48 291.58 75.08H292.8C292.827 75.38 292.943 75.6267 293.15 75.82C293.363 76.0133 293.66 76.11 294.04 76.11C294.433 76.11 294.74 76.0167 294.96 75.83C295.18 75.6367 295.29 75.39 295.29 75.09C295.29 74.8567 295.22 74.6667 295.08 74.52C294.947 74.3733 294.777 74.26 294.57 74.18C294.37 74.1 294.09 74.0133 293.73 73.92C293.277 73.8 292.907 73.68 292.62 73.56C292.34 73.4333 292.1 73.24 291.9 72.98C291.7 72.72 291.6 72.3733 291.6 71.94C291.6 71.54 291.7 71.19 291.9 70.89C292.1 70.59 292.38 70.36 292.74 70.2C293.1 70.04 293.517 69.96 293.99 69.96C294.663 69.96 295.213 70.13 295.64 70.47C296.073 70.8033 296.313 71.2633 296.36 71.85H295.1C295.08 71.5967 294.96 71.38 294.74 71.2C294.52 71.02 294.23 70.93 293.87 70.93C293.543 70.93 293.277 71.0133 293.07 71.18C292.863 71.3467 292.76 71.5867 292.76 71.9C292.76 72.1133 292.823 72.29 292.95 72.43C293.083 72.5633 293.25 72.67 293.45 72.75C293.65 72.83 293.923 72.9167 294.27 73.01C294.73 73.1367 295.103 73.2633 295.39 73.39C295.683 73.5167 295.93 73.7133 296.13 73.98C296.337 74.24 296.44 74.59 296.44 75.03C296.44 75.3833 296.343 75.7167 296.15 76.03C295.963 76.3433 295.687 76.5967 295.32 76.79C294.96 76.9767 294.533 77.07 294.04 77.07ZM302.835 74.11C302.835 74.3167 302.822 74.5033 302.795 74.67H298.585C298.618 75.11 298.782 75.4633 299.075 75.73C299.368 75.9967 299.728 76.13 300.155 76.13C300.768 76.13 301.202 75.8733 301.455 75.36H302.685C302.518 75.8667 302.215 76.2833 301.775 76.61C301.342 76.93 300.802 77.09 300.155 77.09C299.628 77.09 299.155 76.9733 298.735 76.74C298.322 76.5 297.995 76.1667 297.755 75.74C297.522 75.3067 297.405 74.8067 297.405 74.24C297.405 73.6733 297.518 73.1767 297.745 72.75C297.978 72.3167 298.302 71.9833 298.715 71.75C299.135 71.5167 299.615 71.4 300.155 71.4C300.675 71.4 301.138 71.5133 301.545 71.74C301.952 71.9667 302.268 72.2867 302.495 72.7C302.722 73.1067 302.835 73.5767 302.835 74.11ZM301.645 73.75C301.638 73.33 301.488 72.9933 301.195 72.74C300.902 72.4867 300.538 72.36 300.105 72.36C299.712 72.36 299.375 72.4867 299.095 72.74C298.815 72.9867 298.648 73.3233 298.595 73.75H301.645ZM305.287 72.42V75.47C305.287 75.6767 305.334 75.8267 305.427 75.92C305.527 76.0067 305.694 76.05 305.927 76.05H306.627V77H305.727C305.214 77 304.82 76.88 304.547 76.64C304.274 76.4 304.137 76.01 304.137 75.47V72.42H303.487V71.49H304.137V70.12H305.287V71.49H306.627V72.42H305.287ZM309.008 72.42V75.47C309.008 75.6767 309.054 75.8267 309.148 75.92C309.248 76.0067 309.414 76.05 309.648 76.05H310.348V77H309.448C308.934 77 308.541 76.88 308.268 76.64C307.994 76.4 307.858 76.01 307.858 75.47V72.42H307.208V71.49H307.858V70.12H309.008V71.49H310.348V72.42H309.008ZM311.978 70.76C311.772 70.76 311.598 70.69 311.458 70.55C311.318 70.41 311.248 70.2367 311.248 70.03C311.248 69.8233 311.318 69.65 311.458 69.51C311.598 69.37 311.772 69.3 311.978 69.3C312.178 69.3 312.348 69.37 312.488 69.51C312.628 69.65 312.698 69.8233 312.698 70.03C312.698 70.2367 312.628 70.41 312.488 70.55C312.348 70.69 312.178 70.76 311.978 70.76ZM312.538 71.49V77H311.398V71.49H312.538ZM316.815 71.4C317.248 71.4 317.635 71.49 317.975 71.67C318.322 71.85 318.592 72.1167 318.785 72.47C318.978 72.8233 319.075 73.25 319.075 73.75V77H317.945V73.92C317.945 73.4267 317.822 73.05 317.575 72.79C317.328 72.5233 316.992 72.39 316.565 72.39C316.138 72.39 315.798 72.5233 315.545 72.79C315.298 73.05 315.175 73.4267 315.175 73.92V77H314.035V71.49H315.175V72.12C315.362 71.8933 315.598 71.7167 315.885 71.59C316.178 71.4633 316.488 71.4 316.815 71.4ZM322.749 71.4C323.176 71.4 323.553 71.4867 323.879 71.66C324.213 71.8267 324.473 72.0367 324.659 72.29V71.49H325.809V77.09C325.809 77.5967 325.703 78.0467 325.489 78.44C325.276 78.84 324.966 79.1533 324.559 79.38C324.159 79.6067 323.679 79.72 323.119 79.72C322.373 79.72 321.753 79.5433 321.259 79.19C320.766 78.8433 320.486 78.37 320.419 77.77H321.549C321.636 78.0567 321.819 78.2867 322.099 78.46C322.386 78.64 322.726 78.73 323.119 78.73C323.579 78.73 323.949 78.59 324.229 78.31C324.516 78.03 324.659 77.6233 324.659 77.09V76.17C324.466 76.43 324.203 76.65 323.869 76.83C323.543 77.0033 323.169 77.09 322.749 77.09C322.269 77.09 321.829 76.97 321.429 76.73C321.036 76.4833 320.723 76.1433 320.489 75.71C320.263 75.27 320.149 74.7733 320.149 74.22C320.149 73.6667 320.263 73.1767 320.489 72.75C320.723 72.3233 321.036 71.9933 321.429 71.76C321.829 71.52 322.269 71.4 322.749 71.4ZM324.659 74.24C324.659 73.86 324.579 73.53 324.419 73.25C324.266 72.97 324.063 72.7567 323.809 72.61C323.556 72.4633 323.283 72.39 322.989 72.39C322.696 72.39 322.423 72.4633 322.169 72.61C321.916 72.75 321.709 72.96 321.549 73.24C321.396 73.5133 321.319 73.84 321.319 74.22C321.319 74.6 321.396 74.9333 321.549 75.22C321.709 75.5067 321.916 75.7267 322.169 75.88C322.429 76.0267 322.703 76.1 322.989 76.1C323.283 76.1 323.556 76.0267 323.809 75.88C324.063 75.7333 324.266 75.52 324.419 75.24C324.579 74.9533 324.659 74.62 324.659 74.24ZM329.307 77.09C328.873 77.09 328.483 77.0133 328.137 76.86C327.797 76.7 327.527 76.4867 327.327 76.22C327.127 75.9467 327.02 75.6433 327.007 75.31H328.187C328.207 75.5433 328.317 75.74 328.517 75.9C328.723 76.0533 328.98 76.13 329.287 76.13C329.607 76.13 329.853 76.07 330.027 75.95C330.207 75.8233 330.297 75.6633 330.297 75.47C330.297 75.2633 330.197 75.11 329.997 75.01C329.803 74.91 329.493 74.8 329.067 74.68C328.653 74.5667 328.317 74.4567 328.057 74.35C327.797 74.2433 327.57 74.08 327.377 73.86C327.19 73.64 327.097 73.35 327.097 72.99C327.097 72.6967 327.183 72.43 327.357 72.19C327.53 71.9433 327.777 71.75 328.097 71.61C328.423 71.47 328.797 71.4 329.217 71.4C329.843 71.4 330.347 71.56 330.727 71.88C331.113 72.1933 331.32 72.6233 331.347 73.17H330.207C330.187 72.9233 330.087 72.7267 329.907 72.58C329.727 72.4333 329.483 72.36 329.177 72.36C328.877 72.36 328.647 72.4167 328.487 72.53C328.327 72.6433 328.247 72.7933 328.247 72.98C328.247 73.1267 328.3 73.25 328.407 73.35C328.513 73.45 328.643 73.53 328.797 73.59C328.95 73.6433 329.177 73.7133 329.477 73.8C329.877 73.9067 330.203 74.0167 330.457 74.13C330.717 74.2367 330.94 74.3967 331.127 74.61C331.313 74.8233 331.41 75.1067 331.417 75.46C331.417 75.7733 331.33 76.0533 331.157 76.3C330.983 76.5467 330.737 76.74 330.417 76.88C330.103 77.02 329.733 77.09 329.307 77.09Z" fill="#999999"/>
</g>
<defs>
<filter id="filter0_d_518_1307" x="0" y="7" width="415" height="113" filterUnits="userSpaceOnUse" color-interpolation-filters="sRGB">
<feFlood flood-opacity="0" result="BackgroundImageFix"/>
<feColorMatrix in="SourceAlpha" type="matrix" values="0 0 0 0 0 0 0 0 0 0 0 0 0 0 0 0 0 0 127 0" result="hardAlpha"/>
<feOffset dy="3"/>
<feGaussianBlur stdDeviation="10"/>
<feComposite in2="hardAlpha" operator="out"/>
<feColorMatrix type="matrix" values="0 0 0 0 0 0 0 0 0 0 0 0 0 0 0 0 0 0 0.08 0"/>
<feBlend mode="normal" in2="BackgroundImageFix" result="effect1_dropShadow_518_1307"/>
<feBlend mode="normal" in="SourceGraphic" in2="effect1_dropShadow_518_1307" result="shape"/>
</filter>
<clipPath id="clip0_518_1307">
<rect width="24" height="24" fill="white" transform="translate(95.5 40)"/>
</clipPath>
<clipPath id="clip1_518_1307">
<rect width="24" height="24" fill="white" transform="translate(199.5 40)"/>
</clipPath>
<clipPath id="clip2_518_1307">
<rect width="24" height="24" fill="white" transform="translate(299.5 40)"/>
</clipPath>
</defs>
</svg>
